# xmcd
#
# Track frame offsets: 
#        150
#        15028
#        29453
#        40930
#        49653
#        66900
#        77565
#        92012
#        104840
#        118413
#        137447
#        148468
#        159317
#        172997
#        184195
#
# Disc length: 2662 seconds
#
# Revision: 0
# Processed by: cddbd v1.5.2PL0 Copyright (c) Steve Scherf et al.
# Submitted via: ExactAudioCopy v0.99pb3
#
DISCID=c90a640f
DTITLE=The Lennerockers - The Quarter
DYEAR=1900
DGENRE=Country
TTITLE0=Boogie Woogie Queen
TTITLE1=Rockin' At The Wildest Cats Weekender
TTITLE2=Your Voice On The Phone
TTITLE3=V8 Ride
TTITLE4=Suburb Backyard Blues
TTITLE5=Overcharged
TTITLE6=Love You In A Barrel
TTITLE7=Bouncing Betty
TTITLE8=Tebbessee Whiskey
TTITLE9=Pullmann City Blues
TTITLE10=Stompin' With The Wildcats
TTITLE11=I Wanna Be Your Friend
TTITLE12=Flatbroke
TTITLE13=Think It All Over
TTITLE14=The Qarter
EXTD=
EXTT0=
EXTT1=
EXTT2=
EXTT3=
EXTT4=
EXTT5=
EXTT6=
EXTT7=
EXTT8=
EXTT9=
EXTT10=
EXTT11=
EXTT12=
EXTT13=
EXTT14=
PLAYORDER=
